<svg xmlns="http://www.w3.org/2000/svg" width="175" height="175" viewBox="0 0 175 175">
  <path fill="#D8D8D8" d="M87.5,175 C101.067998,175 113.914719,171.911844 125.375623,166.40007 C136.836526,160.888297 141.800416,156.888062 149.140043,149.602783 C156.479671,142.317504 161.760593,135.411423 166.936138,124.240064 C172.111683,113.068705 175,100.621654 175,87.5 C175,74.3783462 172.483643,63.5924536 167.939727,53.0090694 C163.395811,42.4256853 159.801408,36.6056968 151.081167,27.3857533 C142.360925,18.1658099 131.656945,10.8416366 119.652185,6.09619319 C107.647425,1.35074978 102.362082,0 87.5,0 C72.6379183,0 58.6412631,3.70533107 46.3834326,10.242595 C34.125602,16.779859 31.0708745,19.8966745 24.2181196,27.0708764 C17.3653647,34.2450783 12.4991124,40.8446452 7.6093004,51.7575236 C2.71948835,62.6704021 0,74.7676158 0,87.5 C0,100.232384 1.52360299,107.834159 5.86018013,119.048557 C10.1967573,130.262955 16.7774292,140.360266 25.0514289,148.789723 C33.3254285,157.21918 40.5967734,162.35688 51.5608962,167.302303 C62.525019,172.247726 73.9320018,175 87.5,175 Z"/>
</svg>
