<svg width="39" height="39" xmlns="http://www.w3.org/2000/svg"><g fill="none" fill-rule="evenodd"><path d="M1.219 19.5c0 10.096 8.185 18.281 18.281 18.281 10.096 0 18.281-8.185 18.281-18.281 0-10.096-8.185-18.281-18.281-18.281C9.404 1.219 1.219 9.404 1.219 19.5z" stroke="#008FFF" stroke-width="2.438"/><path d="M27.784 16.338s.166 1.348.166 2.695v1.263c0 1.347-.166 2.694-.166 2.694s-.162 1.148-.659 1.653c-.63.663-1.336.666-1.66.705-2.32.169-5.802.174-5.802.174s-4.31-.04-5.636-.167c-.369-.07-1.197-.049-1.828-.712-.497-.505-.658-1.653-.658-1.653s-.166-1.347-.166-2.694v-1.263c0-1.347.166-2.695.166-2.695s.161-1.147.658-1.652c.631-.663 1.337-.666 1.661-.705 2.32-.168 5.799-.168 5.799-.168h.007s3.48 0 5.799.168c.324.039 1.03.042 1.66.705.497.505.66 1.652.66 1.652zm-9.833 5.489l4.478-2.331-4.478-2.347v4.678z" fill="#008FFF"/></g></svg>