<svg width="39" height="39" xmlns="http://www.w3.org/2000/svg" xmlns:xlink="http://www.w3.org/1999/xlink"><defs><path d="M0 19.5C0 8.73 8.73 0 19.5 0S39 8.73 39 19.5 30.27 39 19.5 39 0 30.27 0 19.5z" id="a"/></defs><g fill="none" fill-rule="evenodd"><mask id="b" fill="#fff"><use xlink:href="#a"/></mask><path stroke="#008FFF" stroke-width="2.438" d="M1.219 19.5c0 10.096 8.185 18.281 18.281 18.281 10.096 0 18.281-8.185 18.281-18.281 0-10.096-8.185-18.281-18.281-18.281C9.404 1.219 1.219 9.404 1.219 19.5z"/><path d="M19.515 11.375c-2.21 0-2.488.01-3.356.05-.867.039-1.458.176-1.976.378a3.97 3.97 0 0 0-1.441.939 4 4 0 0 0-.94 1.443c-.202.518-.339 1.11-.378 1.977-.039.869-.049 1.147-.049 3.359 0 2.212.01 2.489.05 3.358.039.867.176 1.459.377 1.977.208.536.486.99.939 1.443.452.453.906.732 1.441.94.518.202 1.11.339 1.976.379.868.04 1.146.049 3.356.049s2.487-.01 3.355-.05c.867-.04 1.459-.176 1.977-.378a3.982 3.982 0 0 0 1.44-.94 4 4 0 0 0 .94-1.443c.2-.518.337-1.11.378-1.977.04-.869.05-1.146.05-3.358s-.01-2.49-.05-3.359c-.04-.867-.178-1.46-.378-1.977a3.998 3.998 0 0 0-.94-1.443 3.978 3.978 0 0 0-1.44-.94c-.52-.2-1.111-.338-1.978-.378-.868-.04-1.144-.049-3.356-.049h.003zm-.73 1.468h.73c2.173 0 2.43.008 3.289.047.793.036 1.224.169 1.511.28.38.148.65.324.935.61.285.285.462.556.61.936.11.287.244.718.28 1.512.039.86.047 1.117.047 3.291s-.008 2.432-.047 3.29c-.037.795-.17 1.226-.28 1.513-.148.38-.325.65-.61.935a2.517 2.517 0 0 1-.935.61c-.287.112-.718.244-1.511.28-.858.04-1.116.048-3.29.048-2.172 0-2.43-.009-3.288-.048-.794-.036-1.224-.169-1.511-.28a2.52 2.52 0 0 1-.936-.61 2.525 2.525 0 0 1-.61-.936c-.11-.287-.244-.718-.28-1.512-.039-.859-.047-1.117-.047-3.292s.008-2.432.047-3.29c.037-.795.17-1.226.28-1.513.148-.38.325-.652.61-.937.284-.285.556-.461.936-.61.287-.111.717-.244 1.511-.28.75-.034 1.042-.044 2.559-.046v.002zm5.075 1.353a.977.977 0 1 0 0 1.954.977.977 0 0 0 0-1.955zm-4.345 1.142a4.182 4.182 0 0 0-4.18 4.183 4.18 4.18 0 0 0 8.359 0 4.181 4.181 0 0 0-4.18-4.183zm0 1.468a2.714 2.714 0 0 1 2.713 2.715 2.714 2.714 0 1 1-2.713-2.715z" fill="#008FFF" mask="url(#b)"/></g></svg>