<svg xmlns="http://www.w3.org/2000/svg" width="175" height="175"><path fill="#D8D8D8" d="M87.5 175c13.568 0 26.415-3.088 37.876-8.6 11.46-5.512 16.424-9.512 23.764-16.797s12.62-14.192 17.796-25.363S175 100.622 175 87.5c0-13.122-2.516-23.908-7.06-34.49-4.544-10.584-8.139-16.404-16.859-25.624a87.64 87.64 0 0 0-31.429-21.29C107.647 1.351 102.362 0 87.5 0 72.638 0 58.641 3.705 46.383 10.243 34.126 16.78 31.071 19.897 24.218 27.07 17.365 34.245 12.5 40.845 7.61 51.758 2.72 62.67 0 74.768 0 87.5c0 12.732 1.524 20.334 5.86 31.549a87.572 87.572 0 0 0 19.191 29.74c8.274 8.43 15.546 13.568 26.51 18.513C62.525 172.248 73.932 175 87.5 175z"/></svg>